<svg width="48" height="48" viewBox="0 0 48 48" fill="none" xmlns="http://www.w3.org/2000/svg">
<rect width="48" height="48" rx="24" fill="#A52EFB"/>
<path d="M17 17.5C17 16.5717 17.3687 15.6815 18.0251 15.0251C18.6815 14.3687 19.5717 14 20.5 14H24V21H20.5C19.5717 21 18.6815 20.6313 18.0251 19.9749C17.3687 19.3185 17 18.4283 17 17.5Z" stroke="white" stroke-width="2" stroke-linecap="round" stroke-linejoin="round"/>
<path d="M24 14H27.5C27.9596 14 28.4148 14.0905 28.8394 14.2664C29.264 14.4423 29.6499 14.7001 29.9749 15.0251C30.2999 15.3501 30.5577 15.736 30.7336 16.1606C30.9095 16.5852 31 17.0404 31 17.5C31 17.9596 30.9095 18.4148 30.7336 18.8394C30.5577 19.264 30.2999 19.6499 29.9749 19.9749C29.6499 20.2999 29.264 20.5577 28.8394 20.7336C28.4148 20.9095 27.9596 21 27.5 21H24V14Z" stroke="white" stroke-width="2" stroke-linecap="round" stroke-linejoin="round"/>
<path d="M24 24.5C24 24.0404 24.0905 23.5852 24.2664 23.1606C24.4423 22.736 24.7001 22.3501 25.0251 22.0251C25.3501 21.7001 25.736 21.4423 26.1606 21.2664C26.5852 21.0905 27.0404 21 27.5 21C27.9596 21 28.4148 21.0905 28.8394 21.2664C29.264 21.4423 29.6499 21.7001 29.9749 22.0251C30.2999 22.3501 30.5577 22.736 30.7336 23.1606C30.9095 23.5852 31 24.0404 31 24.5C31 24.9596 30.9095 25.4148 30.7336 25.8394C30.5577 26.264 30.2999 26.6499 29.9749 26.9749C29.6499 27.2999 29.264 27.5577 28.8394 27.7336C28.4148 27.9095 27.9596 28 27.5 28C27.0404 28 26.5852 27.9095 26.1606 27.7336C25.736 27.5577 25.3501 27.2999 25.0251 26.9749C24.7001 26.6499 24.4423 26.264 24.2664 25.8394C24.0905 25.4148 24 24.9596 24 24.5Z" stroke="white" stroke-width="2" stroke-linecap="round" stroke-linejoin="round"/>
<path d="M17 31.5C17 30.5717 17.3687 29.6815 18.0251 29.0251C18.6815 28.3687 19.5717 28 20.5 28H24V31.5C24 32.4283 23.6313 33.3185 22.9749 33.9749C22.3185 34.6313 21.4283 35 20.5 35C19.5717 35 18.6815 34.6313 18.0251 33.9749C17.3687 33.3185 17 32.4283 17 31.5Z" stroke="white" stroke-width="2" stroke-linecap="round" stroke-linejoin="round"/>
<path d="M17 24.5C17 23.5717 17.3687 22.6815 18.0251 22.0251C18.6815 21.3687 19.5717 21 20.5 21H24V28H20.5C19.5717 28 18.6815 27.6313 18.0251 26.9749C17.3687 26.3185 17 25.4283 17 24.5Z" stroke="white" stroke-width="2" stroke-linecap="round" stroke-linejoin="round"/>
</svg>
