<svg width="48" height="48" viewBox="0 0 48 48" fill="none" xmlns="http://www.w3.org/2000/svg">
<rect width="48" height="48" rx="24" fill="#A52EFB"/>
<path d="M21.1635 28.6683C21.0407 28.2069 20.7927 27.7858 20.4452 27.4488C20.0977 27.1118 19.6634 26.8713 19.1876 26.7523L10.752 24.643C10.6081 24.6034 10.4814 24.5193 10.3912 24.4036C10.301 24.2878 10.2522 24.1467 10.2522 24.0016C10.2522 23.8566 10.301 23.7154 10.3912 23.5997C10.4814 23.484 10.6081 23.3999 10.752 23.3603L19.1876 21.2496C19.6633 21.1307 20.0974 20.8904 20.4449 20.5537C20.7924 20.217 21.0405 19.7962 21.1635 19.335L23.3387 11.155C23.3792 11.0149 23.4658 10.8914 23.5853 10.8035C23.7048 10.7156 23.8507 10.668 24.0008 10.668C24.1508 10.668 24.2967 10.7156 24.4163 10.8035C24.5358 10.8914 24.6224 11.0149 24.6628 11.155L26.8367 19.335C26.9595 19.7964 27.2075 20.2175 27.555 20.5545C27.9025 20.8914 28.3368 21.1319 28.8126 21.251L37.2482 23.359C37.3933 23.3978 37.5212 23.4816 37.6124 23.5977C37.7035 23.7138 37.7529 23.8557 37.7529 24.0016C37.7529 24.1476 37.7035 24.2894 37.6124 24.4055C37.5212 24.5216 37.3933 24.6055 37.2482 24.6443L28.8126 26.7523C28.3368 26.8713 27.9025 27.1118 27.555 27.4488C27.2075 27.7858 26.9595 28.2069 26.8367 28.6683L24.6615 36.8483C24.621 36.9884 24.5344 37.1118 24.4149 37.1998C24.2954 37.2877 24.1495 37.3353 23.9994 37.3353C23.8494 37.3353 23.7035 37.2877 23.5839 37.1998C23.4644 37.1118 23.3778 36.9884 23.3373 36.8483L21.1635 28.6683Z" stroke="white" stroke-width="3.33333" stroke-linecap="round" stroke-linejoin="round"/>
<path d="M35 12V17.3333" stroke="white" stroke-width="3.33333" stroke-linecap="round" stroke-linejoin="round"/>
<path d="M37.75 14.668H32.25" stroke="white" stroke-width="3.33333" stroke-linecap="round" stroke-linejoin="round"/>
<path d="M13 30.668V33.3346" stroke="white" stroke-width="3.33333" stroke-linecap="round" stroke-linejoin="round"/>
<path d="M14.375 32H11.625" stroke="white" stroke-width="3.33333" stroke-linecap="round" stroke-linejoin="round"/>
</svg>
